# xmcd
#
# Track frame offsets:
#	150
#	12134
#	26861
#	39471
#	52941
#	64170
#	78560
#	92091
#	106077
#	120613
#	135513
#	145902
#	157958
#	170859
#	182803
#	194325
#	210423
#	222679
#	236498
#	247906
#	258927
#	271242
#
# Disc length: 3772 seconds
#
# Revision: 1
# Processed by: cddbd v1.5.2PL0 Copyright (c) Steve Scherf et al.
# Submitted via: audiograbber 1.83.01
#
DISCID=340eba16
DTITLE=John Lee Hooker - 16 Original Albums and Bonus Tracks, CD8: Folk Blues - D
DTITLE=rifting Blues
DYEAR=1962
DGENRE=Blues
TTITLE0=Baby I'm Gonna Miss You
TTITLE1=Half A Stranger
TTITLE2=Shake, Holler And Run
TTITLE3=Down Child
TTITLE4=Gonna Boggie
TTITLE5=Bad Boy
TTITLE6=Rock House Boogie
TTITLE7=Let's Talk It Over
TTITLE8=Baby You Ain't No Good
TTITLE9=Lookin' For A Women
TTITLE10=Stuttering Blues
TTITLE11=Wobbling Baby
TTITLE12=You Lost A Good Man
TTITLE13=Love My Baby
TTITLE14=Misbelieving Baby
TTITLE15=Drifting Blues
TTITLE16=Don't Turn Me From Your Door
TTITLE17=My Baby Don't Love Me
TTITLE18=I Ain't Got Nobody
TTITLE19=Real Real Gone
TTITLE20=Guitar' Lovin Man
TTITLE21=Talk About Your Baby
EXTD=Tracks 1-10: Folk Blues\nTracks 11-22: Drifting Blues
EXTT0=
EXTT1=
EXTT2=
EXTT3=
EXTT4=
EXTT5=
EXTT6=
EXTT7=
EXTT8=
EXTT9=
EXTT10=
EXTT11=
EXTT12=
EXTT13=
EXTT14=
EXTT15=
EXTT16=
EXTT17=
EXTT18=
EXTT19=
EXTT20=
EXTT21=
PLAYORDER=
